<svg viewBox="0 0 13 12" fill="none" xmlns="http://www.w3.org/2000/svg">
<path d="M11.2177 1.07529C11.4155 0.88287 11.7321 0.887377 11.9247 1.08506C12.1172 1.28291 12.1127 1.5995 11.915 1.79209L7.21576 6.36729L11.915 10.9435L11.9804 11.0206C12.1111 11.213 12.0933 11.4774 11.9247 11.6505C11.7562 11.8235 11.4926 11.8482 11.2968 11.7228L11.2177 11.6593L6.49994 7.06455L1.78217 11.6593L1.70307 11.7228C1.50733 11.8482 1.24368 11.8235 1.07514 11.6505C0.882572 11.4527 0.88713 11.1361 1.0849 10.9435L5.78314 6.36729L1.0849 1.79209L1.01947 1.71397C0.889111 1.52171 0.906856 1.25805 1.07514 1.08506C1.24372 0.911945 1.50731 0.887208 1.70307 1.01279L1.78217 1.07529L6.49994 5.66904L11.2177 1.07529Z" fill="#282828"/>
</svg>
