<svg width="32" height="21" viewBox="0 0 32 21" fill="none" xmlns="http://www.w3.org/2000/svg">
<path d="M30 12C30.8284 12 31.5 11.3284 31.5 10.5C31.5 9.67157 30.8284 9 30 9V12ZM0 10.5V12H30V10.5V9H0V10.5Z" fill="black"/>
<path d="M16.9091 3.5C17.7375 3.5 18.4091 2.82843 18.4091 2C18.4091 1.17157 17.7375 0.5 16.9091 0.5V3.5ZM0 2V3.5H16.9091V2V0.5H0V2Z" fill="black"/>
<path d="M29.9999 20.5C30.8283 20.5 31.4999 19.8284 31.4999 19C31.4999 18.1716 30.8283 17.5 29.9999 17.5V20.5ZM13.0908 19V20.5H29.9999V19V17.5H13.0908V19Z" fill="black"/>
</svg>
