<svg width="14" height="8" viewBox="0 0 14 8" fill="none" xmlns="http://www.w3.org/2000/svg">
<path d="M12.8343 0.698389C12.6157 0.481096 12.32 0.359131 12.0118 0.359131C11.7036 0.359131 11.4079 0.481096 11.1893 0.698389L7.00096 4.82839L2.87096 0.698389C2.65237 0.481096 2.35667 0.359131 2.04846 0.359131C1.74024 0.359131 1.44455 0.481096 1.22596 0.698389C1.11661 0.806846 1.02981 0.93588 0.970584 1.07805C0.911354 1.22022 0.880859 1.37271 0.880859 1.52672C0.880859 1.68074 0.911354 1.83323 0.970584 1.9754C1.02981 2.11756 1.11661 2.2466 1.22596 2.35506L6.17262 7.30172C6.28108 7.41107 6.41012 7.49787 6.55228 7.5571C6.69445 7.61633 6.84694 7.64682 7.00096 7.64682C7.15497 7.64682 7.30746 7.61633 7.44963 7.5571C7.5918 7.49787 7.72083 7.41107 7.82929 7.30172L12.8343 2.35506C12.9436 2.2466 13.0304 2.11756 13.0897 1.9754C13.1489 1.83323 13.1794 1.68074 13.1794 1.52672C13.1794 1.37271 13.1489 1.22022 13.0897 1.07805C13.0304 0.93588 12.9436 0.806846 12.8343 0.698389Z" fill="black"/>
</svg>
