<svg width="28" height="28" viewBox="0 0 28 28" fill="none" xmlns="http://www.w3.org/2000/svg">
<mask id="mask0_1_3114" style="mask-type:alpha" maskUnits="userSpaceOnUse" x="0" y="0" width="28" height="28">
<rect width="28" height="28" fill="#C4C4C4"/>
</mask>
<g mask="url(#mask0_1_3114)">
<path d="M24.208 9.43374H19.623L20.057 4.44974C20.099 3.96907 19.742 3.54558 19.2613 3.50241C18.7748 3.46741 18.356 3.81741 18.314 4.29924L17.8672 9.43257H10.4938L10.9255 4.4509C10.9687 3.96906 10.6105 3.54558 10.1322 3.50241C9.64217 3.46741 9.22568 3.81741 9.18368 4.29924L8.73801 9.43257H4.12034C3.63734 9.43257 3.24534 9.82574 3.24534 10.3076C3.24534 10.7894 3.63734 11.1826 4.12034 11.1826H8.58634L7.94467 18.5641H3.20801C2.72501 18.5641 2.33301 18.9561 2.33301 19.4391C2.33301 19.9221 2.72501 20.3141 3.20801 20.3141H7.79301L7.35901 25.2981C7.31701 25.7787 7.67401 26.2022 8.15467 26.2454L8.23167 26.2489C8.68084 26.2489 9.06234 25.9047 9.10201 25.4486L9.54884 20.3152H16.9222L16.4905 25.2969C16.4485 25.7787 16.8055 26.2022 17.2862 26.2454L17.3632 26.2489C17.8123 26.2489 18.1938 25.9047 18.2335 25.4486L18.6792 20.3152H23.2957C23.7775 20.3152 24.1707 19.9221 24.1707 19.4402C24.1707 18.9584 23.7775 18.5652 23.2957 18.5652H18.8297L19.4713 11.1837H24.208C24.691 11.1837 25.083 10.7917 25.083 10.3087C25.083 9.82574 24.691 9.43374 24.208 9.43374ZM17.0738 18.5641H9.70051L10.3422 11.1837H17.7155L17.0738 18.5641Z" fill="black"/>
</g>
</svg>
