<?xml version="1.0" encoding="UTF-8" standalone="no"?>
<svg
   width="20"
   height="15"
   viewBox="0 0 20 15"
   fill="none"
   version="1.1"
   id="svg2"
   sodipodi:docname="Vector (1).svg"
   inkscape:version="1.3 (0e150ed6c4, 2023-07-21)"
   xmlns:inkscape="http://www.inkscape.org/namespaces/inkscape"
   xmlns:sodipodi="http://sodipodi.sourceforge.net/DTD/sodipodi-0.dtd"
   xmlns="http://www.w3.org/2000/svg"
   xmlns:svg="http://www.w3.org/2000/svg">
  <defs
     id="defs2" />
  <sodipodi:namedview
     id="namedview2"
     pagecolor="#ffffff"
     bordercolor="#111111"
     borderopacity="1"
     inkscape:showpageshadow="0"
     inkscape:pageopacity="0"
     inkscape:pagecheckerboard="1"
     inkscape:deskcolor="#d1d1d1"
     inkscape:zoom="22.627417"
     inkscape:cx="8.8167377"
     inkscape:cy="10.938058"
     inkscape:window-width="1920"
     inkscape:window-height="1013"
     inkscape:window-x="-9"
     inkscape:window-y="-9"
     inkscape:window-maximized="1"
     inkscape:current-layer="svg2" />
  <path
     fill-rule="evenodd"
     clip-rule="evenodd"
     d="M 15.8352,2.38443 C 15.458878,2.07015 15.26605,1.903461 14.515,1.45737 13.76395,1.011279 11.2957,0.100182 9.5487,0.112545 c -4.92652,0 -7.73395,3.372415 -8.968962,5.382495 -0.381543,0.61711 -0.58364425,1.32831 -0.58364425,2.05384 0,0.72554 0.20210125,1.43674 0.58364425,2.05385 0.718372,1.17637 2.153507,2.66882 2.682492,3.11057 0.528985,0.44175 0.575625,0.47865 1.32573,0.9247 0.750105,0.44605 3.21539,1.3578 4.96074,1.3472 4.9265,0 7.734,-3.3724 8.969,-5.38247 0.3815,-0.61711 0.5836,-1.32831 0.5836,-2.05385 0,-2.2671393 -2.889778,-4.85017 -3.2661,-5.16445 z M 1.93571,8.76957 C 1.70902,8.40277 1.58896,7.98008 1.58896,7.54888 1.58896,7.11768 1.70902,6.695 1.93571,6.32819 2.99724,4.60459 5.39645,1.70406 9.5487,1.70406 c 1.3212,-0.0074 3.2082,0.61903 3.7926,0.92705 0.5844,0.30802 0.87415,0.49485 1.3615,0.88886 0.48735,0.39401 1.8065,1.73797 2.4589,2.80822 0.2267,0.36681 0.3467,0.78949 0.3467,1.22069 0,0.4312 -0.12,0.85389 -0.3467,1.22069 C 16.1002,10.4932 13.701,13.3937 9.5487,13.3937 8.22753,13.4011 6.34052,12.7747 5.75613,12.4667 5.17174,12.1587 4.88195,11.9718 4.39459,11.5778 3.90723,11.1838 2.5881,9.83983 1.93571,8.76957 Z"
     fill="#e1e1e1"
     id="path1"
     sodipodi:nodetypes="zzccsczzccszcscczzcscczzc" />
  <path
     fill-rule="evenodd"
     clip-rule="evenodd"
     d="M 11.7394,4.23297 C 11.011794,3.7198683 10.0595,3.49848 9.14703,3.58972 8.23456,3.68095 7.38175,4.08507 6.73332,4.7335 6.08489,5.38193 5.68077,6.23474 5.58954,7.14721 5.4983,8.05968 5.9984336,9.2798771 6.279665,9.7005375 6.6216633,10.143295 7.054125,10.525263 7.436115,10.778863 7.818105,11.032463 9.0379,11.5993 9.95038,11.5081 10.8628,11.4168 11.7157,11.0127 12.3641,10.3643 13.0125,9.71583 13.4166,8.86303 13.5079,7.95056 13.5991,7.03808 13.377598,6.0858619 12.8646,5.35817 12.468604,4.7964457 12.289593,4.6209616 11.7394,4.23297 Z M 11.2368,9.23694 C 11.6845,8.78924 11.886337,8.1558972 11.936,7.54888 11.964541,7.2000276 11.867279,6.8322576 11.6972,6.52634 11.439275,6.0624166 11.035132,5.6582499 10.5712,5.40034 10.265293,5.2302798 9.9032,5.16299 9.5487,5.16162 c -0.63314,0 -1.24035,0.25151 -1.68805,0.69921 -0.4477,0.4477 -0.69921,1.05491 -0.69921,1.68805 0.00137,0.3545 0.16085,0.86332 0.23872,1.02255 0.3817049,0.6785115 0.5414011,0.8989647 1.126,1.12599 0.5845989,0.2270253 0.66804,0.23736 1.02254,0.23873 0.6331,0 1.2404,-0.25151 1.6881,-0.69921 z"
     fill="#e1e1e1"
     id="path2"
     sodipodi:nodetypes="scscczcccsssaaacscczcs" />
</svg>
