<svg width="20" height="20" viewBox="0 0 20 20" fill="none" xmlns="http://www.w3.org/2000/svg">
<g clip-path="url(#clip0_1_3128)">
<path d="M18.5177 7.49507C17.7993 6.31873 16.8931 5.26796 15.8352 4.38446L18.0633 2.15635C18.2082 2.00627 18.2885 1.80526 18.2866 1.59661C18.2848 1.38797 18.2011 1.18838 18.0536 1.04084C17.9061 0.893302 17.7065 0.809613 17.4978 0.8078C17.2892 0.805987 17.0882 0.886195 16.9381 1.03115L14.515 3.45741C13.0129 2.56522 11.2957 2.10022 9.5487 2.11258C4.62218 2.11258 1.81475 5.48499 0.579738 7.49507C0.198195 8.11219 -0.00390625 8.82338 -0.00390625 9.54892C-0.00390625 10.2745 0.198195 10.9857 0.579738 11.6028C1.29811 12.7791 2.20426 13.8299 3.26223 14.7134L1.03411 16.9415C0.958111 17.0149 0.897489 17.1027 0.855784 17.1998C0.81408 17.2969 0.792128 17.4013 0.791209 17.507C0.790291 17.6126 0.810425 17.7174 0.850437 17.8152C0.890448 17.913 0.949535 18.0018 1.02425 18.0766C1.09897 18.1513 1.18781 18.2104 1.28561 18.2504C1.38341 18.2904 1.48819 18.3105 1.59385 18.3096C1.69951 18.3087 1.80393 18.2867 1.90101 18.245C1.9981 18.2033 2.08591 18.1427 2.15931 18.0667L4.58796 15.638C6.08817 16.5301 7.80335 16.9959 9.5487 16.9853C14.4752 16.9853 17.2827 13.6128 18.5177 11.6028C18.8992 10.9857 19.1013 10.2745 19.1013 9.54892C19.1013 8.82338 18.8992 8.11219 18.5177 7.49507ZM1.93571 10.7696C1.70902 10.4028 1.58896 9.98012 1.58896 9.54892C1.58896 9.11772 1.70902 8.69504 1.93571 8.32823C2.99724 6.60462 5.39645 3.70409 9.5487 3.70409C10.8699 3.69669 12.1725 4.0151 13.3413 4.63115L11.7394 6.233C10.9754 5.72579 10.0595 5.49852 9.14703 5.58975C8.23456 5.68098 7.38175 6.0851 6.73332 6.73354C6.08489 7.38197 5.68077 8.23477 5.58954 9.14725C5.4983 10.0597 5.72557 10.9757 6.23279 11.7396L4.39459 13.5778C3.41987 12.7898 2.5881 11.8399 1.93571 10.7696ZM11.936 9.54892C11.936 10.1821 11.6845 10.7893 11.2368 11.237C10.7891 11.6847 10.1818 11.9362 9.5487 11.9362C9.1942 11.9348 8.84462 11.8532 8.52616 11.6975L11.6972 8.52637C11.853 8.84483 11.9346 9.19442 11.936 9.54892ZM7.16144 9.54892C7.16144 8.91578 7.41295 8.30857 7.86065 7.86087C8.30835 7.41317 8.91556 7.16165 9.5487 7.16165C9.9032 7.16302 10.2528 7.24464 10.5712 7.40038L7.40016 10.5715C7.24442 10.253 7.16281 9.90342 7.16144 9.54892ZM17.1617 10.7696C16.1002 12.4932 13.701 15.3937 9.5487 15.3937C8.22753 15.4011 6.92491 15.0827 5.75613 14.4667L7.35799 12.8648C8.12197 13.372 9.0379 13.5993 9.95038 13.5081C10.8628 13.4169 11.7157 13.0127 12.3641 12.3643C13.0125 11.7159 13.4166 10.8631 13.5079 9.95059C13.5991 9.03812 13.3718 8.12218 12.8646 7.3582L14.7028 5.52001C15.6775 6.30803 16.5093 7.25798 17.1617 8.32823C17.3884 8.69504 17.5084 9.11772 17.5084 9.54892C17.5084 9.98012 17.3884 10.4028 17.1617 10.7696Z" fill="#E1E1E1"/>
</g>
<defs>
<clipPath id="clip0_1_3128">
<rect width="19.0981" height="19.0981" fill="white"/>
</clipPath>
</defs>
</svg>
