<svg width="28" height="28" viewBox="0 0 28 28" fill="none" xmlns="http://www.w3.org/2000/svg">
<mask id="mask0_1_3112" style="mask-type:alpha" maskUnits="userSpaceOnUse" x="0" y="0" width="28" height="28">
<rect width="28" height="28" fill="#C4C4C4"/>
</mask>
<g mask="url(#mask0_1_3112)">
<path d="M26.029 8.80251L14.2422 2.43834C13.982 2.29834 13.6705 2.29834 13.4104 2.43834L1.62588 8.80251C1.20121 9.03235 1.04255 9.56318 1.27238 9.98901C1.42988 10.2807 1.73205 10.4475 2.04238 10.4475C2.18238 10.4475 2.32588 10.4125 2.45772 10.3425L3.40855 9.82917L5.30905 23.261C5.55872 24.6785 6.83505 25.6667 8.41005 25.6667H19.239C20.8164 25.6667 22.0915 24.6773 22.3459 23.2318L24.2429 9.82684L25.1972 10.3425C25.6219 10.5677 26.1539 10.4125 26.3837 9.98784C26.6124 9.56434 26.4537 9.03351 26.029 8.80251ZM20.618 22.9577C20.4932 23.6647 19.7979 23.9167 19.2414 23.9167H8.41238C7.85238 23.9167 7.15821 23.6647 7.03805 22.9857L5.05238 8.94251L13.8257 4.20351L22.6014 8.94018L20.618 22.9577Z" fill="black"/>
<path d="M9.41569 14.1855C9.41569 16.6168 11.3932 18.5955 13.8257 18.5955C16.2582 18.5955 18.2357 16.6168 18.2357 14.1855C18.2357 11.7541 16.2582 9.77547 13.8257 9.77547C11.3932 9.77547 9.41569 11.7541 9.41569 14.1855ZM16.4857 14.1855C16.4857 15.6531 15.2934 16.8455 13.8257 16.8455C12.358 16.8455 11.1657 15.6531 11.1657 14.1855C11.1657 12.7178 12.358 11.5255 13.8257 11.5255C15.2934 11.5255 16.4857 12.7178 16.4857 14.1855Z" fill="black"/>
</g>
</svg>
