<svg width="28" height="28" viewBox="0 0 28 28" fill="none" xmlns="http://www.w3.org/2000/svg">
<mask id="mask0_1_3119" style="mask-type:alpha" maskUnits="userSpaceOnUse" x="0" y="0" width="28" height="28">
<rect width="28" height="28" fill="#C4C4C4"/>
</mask>
<g mask="url(#mask0_1_3119)">
<path d="M18.9587 11.6667C17.8328 11.6667 16.917 12.5848 16.917 13.7083C16.917 14.8318 17.8317 15.75 18.9587 15.75C20.0833 15.75 21.0003 14.833 21.0003 13.7083C21.0003 12.5837 20.0833 11.6667 18.9587 11.6667ZM18.9587 14.5833C18.4757 14.5833 18.0837 14.1913 18.0837 13.7083C18.0837 13.2265 18.4768 12.8333 18.9587 12.8333C19.4405 12.8333 19.8337 13.2253 19.8337 13.7083C19.8337 14.1902 19.4417 14.5833 18.9587 14.5833ZM13.7087 11.6667C12.5817 11.6667 11.667 12.5848 11.667 13.7083C11.667 14.8318 12.5828 15.75 13.7087 15.75C14.8345 15.75 15.7503 14.833 15.7503 13.7083C15.7503 12.5837 14.8357 11.6667 13.7087 11.6667ZM13.7087 14.5833C13.2257 14.5833 12.8337 14.1913 12.8337 13.7083C12.8337 13.2265 13.2268 12.8333 13.7087 12.8333C14.1905 12.8333 14.5837 13.2253 14.5837 13.7083C14.5837 14.1902 14.1917 14.5833 13.7087 14.5833ZM8.45866 11.6667C7.33283 11.6667 6.41699 12.5848 6.41699 13.7083C6.41699 14.8318 7.33283 15.75 8.45866 15.75C9.58333 15.75 10.5003 14.833 10.5003 13.7083C10.5003 12.5837 9.58216 11.6667 8.45866 11.6667ZM8.45866 14.5833C7.97566 14.5833 7.58366 14.1913 7.58366 13.7083C7.58366 13.2265 7.97683 12.8333 8.45866 12.8333C8.94049 12.8333 9.33366 13.2253 9.33366 13.7083C9.33366 14.1902 8.94166 14.5833 8.45866 14.5833Z" fill="black"/>
<path d="M13.7087 26.25C6.79266 26.25 1.16699 20.6243 1.16699 13.7083C1.16699 6.79232 6.79266 1.16666 13.7087 1.16666C20.6247 1.16666 26.2503 6.79232 26.2503 13.7083C26.2503 20.6243 20.6247 26.25 13.7087 26.25ZM13.7087 2.91666C7.75866 2.91666 2.91699 7.75832 2.91699 13.7083C2.91699 19.6583 7.75866 24.5 13.7087 24.5C19.6587 24.5 24.5003 19.6583 24.5003 13.7083C24.5003 7.75832 19.6587 2.91666 13.7087 2.91666Z" fill="black"/>
</g>
</svg>
