<svg width="28" height="28" viewBox="0 0 28 28" fill="none" xmlns="http://www.w3.org/2000/svg">
<mask id="mask0_1_3113" style="mask-type:alpha" maskUnits="userSpaceOnUse" x="0" y="0" width="28" height="28">
<rect width="28" height="28" fill="#C4C4C4"/>
</mask>
<g fill="#000" mask="url(#mask0_1_3113)">
<path d="M25.3137 19.2944C25.2904 19.2757 22.8171 17.381 22.8602 12.2594C22.8836 9.30536 21.9129 6.68035 20.1221 4.86852C18.5179 3.24335 16.3456 2.34501 14.0064 2.33334H13.9912C11.6532 2.34501 9.4809 3.24336 7.87557 4.86969C6.0859 6.68152 5.11291 9.30536 5.13858 12.2594C5.18174 17.311 2.7819 19.2209 2.68624 19.2944C2.3829 19.5195 2.25924 19.9127 2.37707 20.272C2.49607 20.6314 2.83206 20.8729 3.20773 20.8729H8.94774C9.06674 23.5679 11.2776 25.7262 13.9994 25.7262C16.7212 25.7262 18.9297 23.5679 19.0476 20.8729H24.7899C25.1656 20.8729 25.5016 20.6325 25.6182 20.2732C25.7384 19.915 25.6147 19.5207 25.3114 19.2955L25.3137 19.2944ZM14.0006 23.9727C12.2447 23.9727 10.8156 22.5995 10.7012 20.8717H17.2999C17.1832 22.5984 15.7564 23.975 14.0006 23.975V23.9727ZM5.11057 19.1217C5.97391 17.801 6.91658 15.589 6.88858 12.243C6.86758 9.72301 7.6399 7.59735 9.1204 6.09818C10.3956 4.80668 12.1304 4.09151 14.0006 4.08334C15.8707 4.09268 17.6021 4.80669 18.8772 6.09936C20.3589 7.59852 21.1324 9.72302 21.1114 12.2442C21.0834 15.5902 22.0272 17.8034 22.8906 19.1229H5.11057V19.1217Z" fill="black"/>
</g>
</svg>
