<?xml version="1.0" encoding="UTF-8" standalone="no"?>
<svg
   width="24"
   height="24"
   viewBox="0 0 24 24"
   fill="none"
   version="1.1"
   id="svg1"
   sodipodi:docname="search.svg"
   inkscape:version="1.3 (0e150ed6c4, 2023-07-21)"
   xmlns:inkscape="http://www.inkscape.org/namespaces/inkscape"
   xmlns:sodipodi="http://sodipodi.sourceforge.net/DTD/sodipodi-0.dtd"
   xmlns="http://www.w3.org/2000/svg"
   xmlns:svg="http://www.w3.org/2000/svg">
  <defs
     id="defs1" />
  <sodipodi:namedview
     id="namedview1"
     pagecolor="#ffffff"
     bordercolor="#111111"
     borderopacity="1"
     inkscape:showpageshadow="0"
     inkscape:pageopacity="0"
     inkscape:pagecheckerboard="1"
     inkscape:deskcolor="#d1d1d1"
     inkscape:zoom="33.291667"
     inkscape:cx="12"
     inkscape:cy="12"
     inkscape:window-width="1920"
     inkscape:window-height="1013"
     inkscape:window-x="-9"
     inkscape:window-y="-9"
     inkscape:window-maximized="1"
     inkscape:current-layer="svg1" />
  <mask
     id="mask0_1_3122"
     style="mask-type:alpha"
     maskUnits="userSpaceOnUse"
     x="0"
     y="0"
     width="24"
     height="24">
    <rect
       width="24"
       height="24"
       fill="#C4C4C4"
       id="rect1" />
  </mask>
  <g
     mask="url(#mask0_1_3122)"
     id="g1"
     style="fill:#5f6980;fill-opacity:1;stroke:none;stroke-opacity:1">
    <path
       d="M21.53 20.47L17.87 16.81C19.195 15.24 20 13.214 20 11C20 6.03 15.97 2 11 2C6.03 2 2 6.03 2 11C2 15.97 6.03 20 11 20C13.215 20 15.24 19.196 16.808 17.87L20.468 21.53C20.615 21.676 20.808 21.75 20.998 21.75C21.188 21.75 21.383 21.677 21.528 21.53C21.823 21.237 21.823 20.763 21.53 20.47ZM3.5 11C3.5 6.865 6.865 3.5 11 3.5C15.135 3.5 18.5 6.865 18.5 11C18.5 15.135 15.135 18.5 11 18.5C6.865 18.5 3.5 15.135 3.5 11Z"
       fill="black"
       id="path1"
       style="fill:#5f6980;fill-opacity:1;stroke:none;stroke-opacity:1" />
  </g>
</svg>
