<svg width="13" height="4" viewBox="0 0 13 4" fill="none" xmlns="http://www.w3.org/2000/svg">
<path d="M2.78049 2C2.78049 3.10457 2.15805 4 1.39024 4C0.622433 4 0 3.10457 0 2C0 0.895431 0.622433 0 1.39024 0C2.15805 0 2.78049 0.895431 2.78049 2Z" fill="black"/>
<path d="M7.41463 2C7.41463 3.10457 6.7922 4 6.02439 4C5.25658 4 4.63415 3.10457 4.63415 2C4.63415 0.895431 5.25658 0 6.02439 0C6.7922 0 7.41463 0.895431 7.41463 2Z" fill="black"/>
<path d="M12.0488 2C12.0488 3.10457 11.4263 4 10.6585 4C9.89073 4 9.26829 3.10457 9.26829 2C9.26829 0.895431 9.89073 0 10.6585 0C11.4263 0 12.0488 0.895431 12.0488 2Z" fill="black"/>
</svg>
